<mxfile host="app.diagrams.net" modified="2023-05-27T16:04:53.324Z" agent="Mozilla/5.0 (Windows NT 10.0; Win64; x64) AppleWebKit/537.36 (KHTML, like Gecko) Chrome/112.0.0.0 Safari/537.36 OPR/98.0.0.0" etag="5nbCR6AwrDO8asi5DYlX" version="21.3.4" type="device">
  <diagram name="Page-1" id="8Wo9_IC4KV2d9Kw_AB5v">
    <mxGraphModel dx="480" dy="277" grid="0" gridSize="10" guides="1" tooltips="1" connect="1" arrows="1" fold="1" page="1" pageScale="1" pageWidth="1200" pageHeight="1600" background="#ffffff" math="0" shadow="0">
      <root>
        <mxCell id="0" />
        <mxCell id="1" parent="0" />
        <mxCell id="Ak5L3C2xult8LdzYqyk_-2" value="" style="rounded=0;whiteSpace=wrap;html=1;fillColor=#eeeeee;strokeColor=#36393d;" vertex="1" parent="1">
          <mxGeometry x="280" y="120" width="120" height="60" as="geometry" />
        </mxCell>
        <mxCell id="Ak5L3C2xult8LdzYqyk_-6" value="&lt;font color=&quot;#000000&quot;&gt;&lt;span style=&quot;font-size: 11px;&quot;&gt;R&lt;/span&gt;&lt;/font&gt;" style="text;html=1;strokeColor=none;fillColor=none;align=center;verticalAlign=middle;whiteSpace=wrap;rounded=0;" vertex="1" parent="1">
          <mxGeometry x="280" y="130" width="30" height="20" as="geometry" />
        </mxCell>
        <mxCell id="Ak5L3C2xult8LdzYqyk_-7" value="&lt;font color=&quot;#000000&quot;&gt;&lt;span style=&quot;font-size: 11px;&quot;&gt;Load&lt;/span&gt;&lt;/font&gt;" style="text;html=1;strokeColor=none;fillColor=none;align=center;verticalAlign=middle;whiteSpace=wrap;rounded=0;" vertex="1" parent="1">
          <mxGeometry x="280" y="120" width="30" height="20" as="geometry" />
        </mxCell>
        <mxCell id="Ak5L3C2xult8LdzYqyk_-9" value="&lt;font color=&quot;#000000&quot;&gt;&lt;span style=&quot;font-size: 11px;&quot;&gt;EN&lt;/span&gt;&lt;/font&gt;" style="text;html=1;strokeColor=none;fillColor=none;align=center;verticalAlign=middle;whiteSpace=wrap;rounded=0;" vertex="1" parent="1">
          <mxGeometry x="280" y="140" width="30" height="20" as="geometry" />
        </mxCell>
        <mxCell id="Ak5L3C2xult8LdzYqyk_-10" value="&lt;font color=&quot;#000000&quot;&gt;&lt;span style=&quot;font-size: 11px;&quot;&gt;QReset&lt;/span&gt;&lt;/font&gt;" style="text;html=1;strokeColor=none;fillColor=none;align=center;verticalAlign=middle;whiteSpace=wrap;rounded=0;" vertex="1" parent="1">
          <mxGeometry x="290" y="150" width="30" height="20" as="geometry" />
        </mxCell>
        <mxCell id="Ak5L3C2xult8LdzYqyk_-11" value="&lt;font color=&quot;#000000&quot;&gt;&lt;span style=&quot;font-size: 11px;&quot;&gt;Q&lt;/span&gt;&lt;/font&gt;" style="text;html=1;strokeColor=none;fillColor=none;align=center;verticalAlign=middle;whiteSpace=wrap;rounded=0;" vertex="1" parent="1">
          <mxGeometry x="280" y="160" width="30" height="20" as="geometry" />
        </mxCell>
        <mxCell id="Ak5L3C2xult8LdzYqyk_-13" value="&lt;font color=&quot;#000000&quot;&gt;&lt;span style=&quot;font-size: 8px;&quot;&gt;&lt;b&gt;Registru de memorare&lt;/b&gt;&lt;/span&gt;&lt;/font&gt;" style="text;html=1;fillColor=none;align=center;verticalAlign=middle;whiteSpace=wrap;rounded=0;" vertex="1" parent="1">
          <mxGeometry x="320" y="135" width="60" height="30" as="geometry" />
        </mxCell>
        <mxCell id="Ak5L3C2xult8LdzYqyk_-14" value="" style="endArrow=classic;html=1;rounded=0;strokeColor=#000000;entryX=0;entryY=0.5;entryDx=0;entryDy=0;" edge="1" parent="1" target="Ak5L3C2xult8LdzYqyk_-7">
          <mxGeometry width="50" height="50" relative="1" as="geometry">
            <mxPoint x="240" y="130" as="sourcePoint" />
            <mxPoint x="340" y="140" as="targetPoint" />
          </mxGeometry>
        </mxCell>
        <mxCell id="Ak5L3C2xult8LdzYqyk_-15" value="" style="endArrow=classic;html=1;rounded=0;strokeColor=#000000;entryX=0;entryY=0.5;entryDx=0;entryDy=0;" edge="1" parent="1">
          <mxGeometry width="50" height="50" relative="1" as="geometry">
            <mxPoint x="240" y="140" as="sourcePoint" />
            <mxPoint x="280" y="139.72" as="targetPoint" />
          </mxGeometry>
        </mxCell>
        <mxCell id="Ak5L3C2xult8LdzYqyk_-16" value="" style="endArrow=classic;html=1;rounded=0;strokeColor=#000000;entryX=0;entryY=0.5;entryDx=0;entryDy=0;" edge="1" parent="1">
          <mxGeometry width="50" height="50" relative="1" as="geometry">
            <mxPoint x="240" y="150" as="sourcePoint" />
            <mxPoint x="280" y="150" as="targetPoint" />
          </mxGeometry>
        </mxCell>
        <mxCell id="Ak5L3C2xult8LdzYqyk_-20" value="&lt;font color=&quot;#000000&quot;&gt;&lt;span style=&quot;font-size: 11px;&quot;&gt;Etaje&lt;/span&gt;&lt;/font&gt;" style="text;html=1;strokeColor=none;fillColor=none;align=center;verticalAlign=middle;whiteSpace=wrap;rounded=0;" vertex="1" parent="1">
          <mxGeometry x="370" y="120" width="30" height="20" as="geometry" />
        </mxCell>
        <mxCell id="Ak5L3C2xult8LdzYqyk_-21" value="" style="endArrow=classic;html=1;rounded=0;strokeColor=#000000;" edge="1" parent="1">
          <mxGeometry relative="1" as="geometry">
            <mxPoint x="240" y="170" as="sourcePoint" />
            <mxPoint x="280" y="170" as="targetPoint" />
          </mxGeometry>
        </mxCell>
        <mxCell id="Ak5L3C2xult8LdzYqyk_-24" value="" style="endArrow=classic;html=1;rounded=0;strokeColor=#000000;edgeStyle=elbowEdgeStyle;elbow=vertical;" edge="1" parent="1">
          <mxGeometry relative="1" as="geometry">
            <mxPoint x="240" y="160" as="sourcePoint" />
            <mxPoint x="280" y="160" as="targetPoint" />
          </mxGeometry>
        </mxCell>
        <mxCell id="Ak5L3C2xult8LdzYqyk_-26" value="" style="endArrow=classic;html=1;rounded=0;strokeColor=#000000;entryX=0;entryY=0.5;entryDx=0;entryDy=0;" edge="1" parent="1">
          <mxGeometry width="50" height="50" relative="1" as="geometry">
            <mxPoint x="400" y="129.86" as="sourcePoint" />
            <mxPoint x="440" y="129.86" as="targetPoint" />
          </mxGeometry>
        </mxCell>
        <mxCell id="Ak5L3C2xult8LdzYqyk_-29" value="" style="endArrow=none;html=1;rounded=0;strokeColor=#000000;" edge="1" parent="1">
          <mxGeometry width="50" height="50" relative="1" as="geometry">
            <mxPoint x="260" y="164" as="sourcePoint" />
            <mxPoint x="252" y="156" as="targetPoint" />
          </mxGeometry>
        </mxCell>
        <mxCell id="Ak5L3C2xult8LdzYqyk_-30" value="" style="endArrow=none;html=1;rounded=0;strokeColor=#000000;" edge="1" parent="1">
          <mxGeometry width="50" height="50" relative="1" as="geometry">
            <mxPoint x="260" y="174" as="sourcePoint" />
            <mxPoint x="252" y="166" as="targetPoint" />
          </mxGeometry>
        </mxCell>
        <mxCell id="Ak5L3C2xult8LdzYqyk_-32" value="&lt;font color=&quot;#000000&quot;&gt;&lt;span style=&quot;font-size: 7px;&quot;&gt;&lt;b&gt;4&lt;/b&gt;&lt;/span&gt;&lt;/font&gt;" style="text;html=1;strokeColor=none;fillColor=none;align=center;verticalAlign=middle;whiteSpace=wrap;rounded=0;" vertex="1" parent="1">
          <mxGeometry x="251" y="149" width="18" height="10" as="geometry" />
        </mxCell>
        <mxCell id="Ak5L3C2xult8LdzYqyk_-33" value="&lt;font color=&quot;#000000&quot;&gt;&lt;span style=&quot;font-size: 7px;&quot;&gt;&lt;b&gt;4&lt;/b&gt;&lt;/span&gt;&lt;/font&gt;" style="text;html=1;strokeColor=none;fillColor=none;align=center;verticalAlign=middle;whiteSpace=wrap;rounded=0;" vertex="1" parent="1">
          <mxGeometry x="251" y="159" width="18" height="10" as="geometry" />
        </mxCell>
        <mxCell id="Ak5L3C2xult8LdzYqyk_-34" value="&lt;font color=&quot;#000000&quot;&gt;&lt;span style=&quot;font-size: 7px;&quot;&gt;&lt;b&gt;13&lt;br&gt;&lt;/b&gt;&lt;/span&gt;&lt;/font&gt;" style="text;html=1;strokeColor=none;fillColor=none;align=center;verticalAlign=middle;whiteSpace=wrap;rounded=0;" vertex="1" parent="1">
          <mxGeometry x="405" y="116" width="18" height="10" as="geometry" />
        </mxCell>
        <mxCell id="Ak5L3C2xult8LdzYqyk_-35" value="" style="endArrow=none;html=1;rounded=0;strokeColor=#000000;" edge="1" parent="1">
          <mxGeometry width="50" height="50" relative="1" as="geometry">
            <mxPoint x="418" y="134" as="sourcePoint" />
            <mxPoint x="410" y="126" as="targetPoint" />
          </mxGeometry>
        </mxCell>
      </root>
    </mxGraphModel>
  </diagram>
</mxfile>
